<svg width="131" height="61" viewBox="0 0 131 61" fill="none" xmlns="http://www.w3.org/2000/svg">
<path d="M130.538 53.6963C130.919 53.296 130.902 52.6631 130.502 52.2825L123.979 46.0817C123.579 45.7012 122.946 45.7172 122.565 46.1175C122.185 46.5178 122.201 47.1507 122.601 47.5312L128.399 53.0431L122.888 58.8413C122.507 59.2416 122.523 59.8746 122.923 60.2551C123.324 60.6356 123.957 60.6196 124.337 60.2193L130.538 53.6963ZM53.9464 37.2185L54.3561 36.3063L53.9464 37.2185ZM0.0794717 1.68673C9.24911 11.5899 28.0617 26.687 53.5366 38.1307L54.3561 36.3063C29.1175 24.9688 10.5277 10.027 1.54699 0.327916L0.0794717 1.68673ZM53.5366 38.1307C74.856 47.7077 100.873 54.7403 129.839 54.007L129.788 52.0076C101.179 52.7319 75.4593 45.7862 54.3561 36.3063L53.5366 38.1307Z" fill="white"/>
</svg>
