<svg width="90" height="43" viewBox="0 0 90 43" fill="none" xmlns="http://www.w3.org/2000/svg">
<path d="M82.2658 41.9865C82.6847 42.3464 83.3161 42.2986 83.676 41.8797L89.541 35.0532C89.9009 34.6343 89.8531 34.0029 89.4342 33.643C89.0153 33.2831 88.3839 33.3309 88.024 33.7498L82.8106 39.8179L76.7426 34.6045C76.3237 34.2446 75.6924 34.2924 75.3325 34.7113C74.9725 35.1302 75.0204 35.7616 75.4393 36.1215L82.2658 41.9865ZM1.11295 8.94443C13.945 4.36151 33.3607 0.541584 49.9573 3.86085C58.2375 5.51688 65.7606 8.93808 71.437 14.8716C77.1047 20.7962 81.0117 29.3094 81.9203 41.3036L83.9146 41.1525C82.9774 28.7813 78.9241 19.8049 72.8821 13.4891C66.8488 7.1823 58.9128 3.61232 50.3495 1.89969C33.2591 -1.51835 13.4503 2.41446 0.440272 7.06094L1.11295 8.94443Z" fill="white"/>
</svg>
