<svg width="1200" height="1041" viewBox="0 0 1200 1041" fill="none" xmlns="http://www.w3.org/2000/svg">
<rect x="60.0479" y="256.651" width="606.671" height="606.671" rx="145.431" transform="rotate(-11.6379 60.0479 256.651)" stroke="#B0B0B0" stroke-width="4"/>
<path d="M409.773 596.634L444.216 589.54C451.608 588.018 457.068 581.738 457.548 574.206L464.827 460.014L516.638 562.036C520.055 568.765 527.552 572.376 534.944 570.854L569.505 563.736C576.907 562.211 582.37 555.917 582.838 548.374L593.583 375.226C594.266 364.215 584.3 355.565 573.494 357.79L549.904 362.649C542.252 364.225 536.708 370.883 536.543 378.694L534.045 496.977L482.908 389.464C479.597 382.503 471.961 378.702 464.41 380.257L434.002 386.52C426.422 388.081 420.899 394.635 420.646 402.371L416.725 522.176L366.951 413.583C363.702 406.495 355.99 402.587 348.353 404.16L324.621 409.048C313.811 411.275 308.075 423.167 313.062 433.012L391.459 587.8C394.872 594.539 402.375 598.158 409.773 596.634Z" stroke="#B0B0B0" stroke-width="4"/>
<path d="M310.728 617.034L358.259 607.244C366.268 605.594 370.554 596.817 366.929 589.487L348.304 551.819C344.979 545.096 337.537 541.462 330.19 542.975C324.706 544.104 319.14 541.448 316.57 536.473L263.655 434.076C260.211 427.411 252.752 423.85 245.403 425.364L221.573 430.272C210.61 432.53 204.907 444.702 210.189 454.571L292.589 608.535C296.087 615.071 303.467 618.529 310.728 617.034Z" stroke="#B0B0B0" stroke-width="4"/>
<path opacity="0.9" d="M219.963 1030.17L56.7167 237.557" stroke="#B0B0B0" stroke-dasharray="10 10"/>
<path opacity="0.9" d="M297.393 896.305L150.059 180.955" stroke="#B0B0B0" stroke-dasharray="10 10"/>
<path opacity="0.9" d="M52.5259 463.257L1080.46 251.544" stroke="#B0B0B0" stroke-dasharray="10 10"/>
<path opacity="0.9" d="M242.78 294.972L453.775 715.624" stroke="#B0B0B0" stroke-dasharray="10 10"/>
<path opacity="0.9" d="M117.935 656.813L1121.36 450.146" stroke="#B0B0B0" stroke-dasharray="10 10"/>
</svg>
