<svg width="248" height="354" viewBox="0 0 248 354" fill="none" xmlns="http://www.w3.org/2000/svg">
<path d="M172.096 277.526C145.358 276.924 119.022 286.093 92.4949 282.669C87.3259 264.165 77.2291 247.058 63.5255 233.591C45.5254 215.896 17.9351 202.807 3.17851 150.748C-1.74122 133.395 -0.0888674 114.66 2.38559 96.7929C4.86004 78.9254 11.1695 61.2675 22.6745 47.3755C41.8416 24.2355 62.3824 12.8418 91.5322 5.55375C124.684 -2.73421 168.349 -1.42403 198.281 19.8091C245.272 53.1492 247.59 94.9418 247.94 119.625C248.067 128.754 248.139 137.944 246.553 146.937C240.384 181.922 220.962 207.279 206.238 220.709C196.69 229.419 187.455 239.964 182.246 251.79C177.836 261.807 178.196 267.819 171.754 276.667C172.518 275.712 171.333 278.481 172.096 277.526" fill="#DFBF0F"/>
<path d="M87.7714 344.639C87.469 348.779 90.808 352.253 94.9586 352.102C102.517 351.829 153.226 353.959 170.571 352.678C174.396 352.394 177.316 349.193 177.395 345.363C177.966 317.322 183.442 280.338 176.401 271.766C172.606 267.146 117.759 271.113 91.8635 271.434C85.9572 271.506 87.8561 297.457 88.0232 304.493C88.1028 307.817 88.7182 331.606 87.7714 344.639" fill="#1E2939"/>
<path d="M150.065 180.421C146.498 168.505 149.93 155.748 153.356 143.792C154.77 138.859 156.223 133.841 159.051 129.56C161.812 125.378 165.739 122.126 169.126 118.435C173.977 113.149 177.722 106.961 181.432 100.819C182.066 99.7715 182.724 98.6231 182.594 97.4031C182.512 96.6207 182.108 95.91 181.687 95.2416C174.258 83.429 160.096 78.0584 146.922 73.4516C146.434 74.6318 145.946 75.812 145.456 76.9895C150.333 78.8991 149.442 85.8901 150.657 90.9823C151.675 95.2469 154.083 98.6947 158.178 100.257C151.664 100.427 144.798 100.694 139.268 104.145C135.224 106.667 132.471 108.805 131.362 113.441C129.633 112.382 125.456 116.268 123.44 116.448C117.887 116.944 115.402 115.178 115.014 114.016C110.193 113.605 107.777 111.475 101.449 113.045C101.25 108.046 97.3909 103.782 92.8743 101.628C88.3577 99.4771 84.1433 99.0103 79.1573 98.5966C84.1486 97.0291 88.2808 92.9501 89.9118 87.98C90.9303 84.8797 91.2512 81.1428 93.9325 79.2863C95.4708 78.2228 97.428 77.8249 99.2951 77.7056C100.515 76.7243 100.245 74.7326 99.3588 73.4436C98.473 72.152 99.5126 71.3484 98.6586 70.0356C98.4226 69.6723 94.1844 68.874 80.9237 76.3345C75.0465 79.639 70.0154 87.4443 66.9389 93.4435C62.4064 102.28 63.9764 113.552 69.7475 121.636C75.5159 129.72 84.9682 134.732 94.7652 136.366C95.9534 136.565 97.2398 136.758 98.0991 137.607C99.1864 138.676 99.2102 140.392 99.1625 141.919C98.7143 156.199 98.2688 170.483 97.8232 184.762C108.403 184.63 118.682 178.315 123.581 168.934C129.484 177.426 150.346 177.747 150.065 180.421" fill="#1E2939"/>
<path d="M142.337 66.4365C140.661 65.2642 138.716 64.2087 136.685 64.4394C134.932 64.641 133.402 65.8 132.351 67.2189C131.304 68.6378 130.665 70.3113 130.039 71.9609C129.842 72.4807 129.641 73.0404 129.766 73.5814C130.031 74.7643 131.542 75.0931 132.754 75.1329C134.046 75.1806 135.558 75.0639 136.271 73.9871C136.741 73.2816 136.767 72.2686 137.451 71.7726C138.316 71.1467 139.501 71.7859 140.361 72.4171C142.493 73.9792 144.626 75.5413 146.755 77.1034C152.662 73.6158 145.572 68.7041 142.337 66.4365Z" fill="#F57477"/>
<path d="M109.755 65.4764C111.084 64.9406 112.654 64.4182 113.879 65.1608C114.505 65.5401 114.911 66.1819 115.295 66.8025C116.093 68.0914 116.908 69.4175 117.186 70.9053C117.441 72.2579 117.186 73.7697 116.239 74.7695C115.293 75.7694 113.577 76.0584 112.505 75.1938C111.532 74.4035 111.282 72.9263 110.24 72.2314C109.208 71.5445 107.835 71.884 106.649 72.25C104.496 72.9157 102.39 73.6768 100.311 74.5228C100.783 72.3242 99.8544 70.5314 101.403 68.8685C102.952 67.2029 107.615 66.341 109.755 65.4764" fill="#F57477"/>
<path d="M142.711 165.892C144.207 172.804 143.96 179.543 145.458 186.454C146.4 190.801 144.962 219.139 142.255 221.373C142.854 221.216 144.299 248.515 147.771 264.364C150.633 264.38 153.643 264.435 156.128 265.86C158.61 267.287 160.268 270.583 158.905 273.1C147.646 271.588 136.139 271.952 125.002 274.177C118.921 275.391 112.834 277.166 106.647 276.787C105.313 273.095 107.527 268.878 110.758 266.653C113.988 264.425 118.791 262.807 118.717 261.818C117.903 251.337 117.327 238.593 116.515 228.112C116.317 225.552 115.998 222.738 114.11 221.001C112.736 219.736 108.928 195.344 109.068 186.505C109.132 182.574 109.198 178.609 110.076 174.78C110.296 173.82 110.58 172.841 111.201 172.077C111.903 171.207 112.956 170.711 113.983 170.271C123.676 166.102 132.2 164.937 142.711 165.892" fill="#1E2939"/>
<path d="M142.071 78.1748C141.756 78.5912 141.427 79.1349 141.66 79.6043C141.809 79.8987 142.138 80.0525 142.443 80.1825C143.824 80.7739 145.206 81.3627 146.591 81.9541C146.991 82.1265 147.503 82.2803 147.819 81.9806C147.996 81.8109 148.044 81.5536 148.092 81.3149C148.933 77.0397 152.163 74.1859 154.881 71.0723C148.948 66.2189 145.196 74.0162 142.071 78.1748" fill="white"/>
<path d="M100.868 64.4976C101.022 70.0804 101.775 75.6446 103.112 81.0656C101.221 81.4183 99.3297 81.771 97.4388 82.1238C99.3244 81.771 96.8924 71.6478 96.5874 70.449C95.3409 65.5929 96.5716 66.3674 100.868 64.4976" fill="white"/>
<path d="M114.158 177.943L114.739 114.127C114.739 114.127 131.314 112.138 131.728 113.382C132.142 114.623 137.528 176.121 137.528 176.121C137.528 176.121 119.13 177.779 114.158 177.943Z" fill="white"/>
<path d="M123.218 113.538C122.053 115.278 121.006 117.119 120.083 119.044C119.746 119.752 119.43 120.657 119.828 121.32C119.977 121.569 120.207 121.736 120.43 121.893L122.953 123.696C123.775 124.282 124.939 124.057 125.435 123.176C126.037 122.11 126.703 121.089 127.421 120.126C127.933 119.44 127.907 118.498 127.318 117.877L123.724 114.093C123.647 113.854 123.57 113.615 123.491 113.377L123.218 113.538" fill="#1E2939"/>
<path d="M113.19 114.515C113.19 114.515 116.174 118.326 122.032 119.045C127.888 119.763 133.137 116.117 133.8 114.846C134.463 113.576 130.042 112.303 128.938 112.303C127.832 112.303 113.909 113.464 113.19 114.515Z" fill="#1E2939"/>
<path d="M125.602 163.789C123.247 161.59 121.809 160.765 119.82 157.5C119.971 156.363 120.364 150.098 120.515 148.961C121.364 142.577 121.099 135.596 121.947 129.21C122.287 126.661 121.788 120.259 121.947 119.432C122.109 118.604 124.265 118.1 124.517 118.835C126.156 128.611 129.013 147.393 130.652 157.169C130.986 159.174 129.103 160.153 125.602 163.789" fill="#1E2939"/>
<path d="M118.33 106.335C118.33 106.335 118.33 110.314 117.391 111.862C116.449 113.409 115.953 113.409 116.065 113.796C116.174 114.183 119.712 116.005 123.743 115.729C127.777 115.453 131.728 113.602 131.423 113.133C131.121 112.663 126.342 108.988 125.955 104.789C125.567 100.591 118.33 106.335 118.33 106.335Z" fill="#F57477"/>
<path d="M111.013 119.877C111.973 121.163 112.991 122.384 114.081 123.558C114.673 124.195 115.381 125.213 116.375 125.11C117.298 125.014 118.134 124.386 118.919 123.948C120.603 123.009 122.205 121.93 123.767 120.797C124.966 119.928 123.138 119.445 122.372 119.997C120.621 121.267 118.423 123.155 116.333 123.786C116.675 123.808 117.017 123.829 117.357 123.847C115.638 122.818 114.201 120.554 113.023 118.978C112.517 118.297 110.419 119.079 111.013 119.877" fill="#1E2939"/>
<path d="M124.485 121.447C125.371 122.651 126.843 124.821 128.601 124.675C129.54 124.598 130.275 124.113 131.057 123.641C132.37 122.845 133.683 122.049 134.998 121.254C136.258 120.49 134.436 119.784 133.566 120.31C132.439 120.991 131.314 121.673 130.187 122.354C129.264 122.914 128.925 123.195 128.076 122.391C127.477 121.821 126.97 121.166 126.482 120.503C125.917 119.734 123.835 120.564 124.485 121.447" fill="#1E2939"/>
<path d="M124.493 166.271C124.607 166.971 124.718 167.669 124.833 168.372C125.559 168.175 126.286 167.982 127.01 167.786C126.899 167.088 126.785 166.388 126.671 165.688C126.586 165.149 124.392 165.64 124.493 166.271C124.607 166.971 124.718 167.669 124.833 168.372C124.92 168.907 127.113 168.417 127.01 167.786C126.899 167.088 126.785 166.388 126.671 165.688C126.586 165.149 124.392 165.64 124.493 166.271Z" fill="#1E2939"/>
<path d="M125.191 172.35C125.177 173.127 125.244 173.856 125.437 174.612C125.652 175.442 127.715 174.872 127.617 174.029C127.535 173.329 127.453 172.631 127.373 171.934C127.28 171.138 125.092 171.639 125.193 172.517C125.275 173.217 125.358 173.912 125.437 174.612C126.164 174.416 126.891 174.222 127.617 174.029C127.45 173.382 127.363 172.774 127.376 172.103C127.394 171.133 125.207 171.568 125.191 172.35" fill="#1E2939"/>
<path d="M82.4697 326.098C82.4697 326.135 82.4697 326.172 82.4697 326.209C82.4697 327.376 84.679 327.074 84.679 326.058C84.679 326.021 84.679 325.984 84.679 325.946C84.679 324.782 82.4697 325.085 82.4697 326.098Z" fill="white"/>
<path d="M107.536 271.848C124.119 271.686 140.695 271.32 157.269 270.744C157.908 270.723 159.632 269.734 158.192 269.784C141.616 270.357 125.04 270.726 108.456 270.888C107.814 270.893 106.093 271.861 107.536 271.848Z" fill="white"/>
<path d="M125.193 186.653C126.845 214.543 130.651 242.47 131.296 270.35C131.319 271.379 133.507 270.968 133.489 270.13C132.842 242.112 129.031 214.092 127.37 186.07C127.32 185.229 125.137 185.709 125.193 186.653" fill="white"/>
<path d="M115.065 223.566C116.325 225.653 118.64 226.528 121 226.297C122.077 226.194 122.801 224.918 121.292 225.064C119.515 225.237 117.974 224.176 117.086 222.706C116.706 222.078 114.587 222.775 115.065 223.566" fill="white"/>
<path d="M137.154 224.815C139.891 224.25 142.17 222.68 143.74 220.385C144.055 219.921 143.464 219.563 143.087 219.505C142.525 219.417 141.971 219.714 141.666 220.163C140.496 221.871 138.783 222.958 136.77 223.374C135.401 223.658 135.807 225.093 137.154 224.815Z" fill="white"/>
<path d="M118.388 263.099C122.852 263.032 127.27 262.29 131.736 262.242C132.58 262.231 134.036 260.945 132.572 260.961C128.106 261.011 123.687 261.751 119.224 261.82C118.38 261.834 116.924 263.122 118.388 263.099Z" fill="white"/>
<path d="M131.657 264.064C136.921 264.284 142.186 264.502 147.45 264.722C148.23 264.753 149.781 263.626 148.317 263.565C143.053 263.345 137.791 263.125 132.527 262.905C131.747 262.873 130.195 264.003 131.657 264.064" fill="white"/>
<path d="M112.749 97.6073C111.312 96.9442 110.869 89.7596 115.07 88.102C119.268 86.4444 124.793 88.5449 127.113 87.5503C129.434 86.5558 129.766 83.4608 130.32 83.4608C130.872 83.4608 133.304 88.102 132.641 92.303C131.977 96.5013 126.782 99.8165 126.782 99.8165L112.749 97.6073Z" fill="#1E2939"/>
<path d="M124.777 107.206C133.076 103.843 129.241 84.5058 118.152 90.4625C108.249 95.7827 112.925 112.009 124.777 107.206Z" fill="#F57477"/>
<path d="M112.638 94.7323C112.638 94.7323 116.616 91.3083 118.826 92.3029C121.038 93.2974 124.353 93.0747 126.23 92.7432C128.108 92.4117 129.434 91.0856 129.434 91.0856C129.434 91.0856 125.567 88.5448 123.027 88.6562C120.483 88.7649 113.633 91.3083 113.633 91.3083L112.638 94.7323Z" fill="#1E2939"/>
<path d="M123.737 44.2513C123.212 39.1618 123.13 34.0803 123.48 28.9749C123.549 27.9697 121.348 28.3437 121.289 29.1976C120.929 34.425 121.022 39.6233 121.56 44.8374C121.647 45.6888 123.833 45.1875 123.737 44.2513Z" fill="white"/>
<path d="M70.7474 66.6037C65.9947 63.8826 61.2394 61.1588 56.4868 58.4351C55.9404 58.1221 54.1396 59.0159 54.4367 59.1857C59.1893 61.9068 63.942 64.6305 68.6973 67.3516C69.2436 67.6672 71.0444 66.7761 70.7474 66.6037" fill="white"/>
<path d="M181.148 68.2557C184.843 64.7019 190.537 64.1741 193.667 59.9015C194.141 59.2543 192.02 59.5248 191.675 59.9943C188.614 64.174 182.833 64.8133 179.159 68.3459C178.637 68.8498 180.729 68.6589 181.148 68.2557" fill="white"/>
<path d="M26.2555 129.07C31.833 127.473 37.4714 126.168 43.1842 125.155C44.0779 124.999 45.099 124.015 43.5714 124.285C37.6597 125.33 31.8277 126.675 26.0566 128.327C24.7995 128.688 24.9692 129.438 26.2555 129.07" fill="white"/>
<path d="M54.3995 185.849C58.4361 182.08 62.4726 178.312 66.5091 174.543C67.0449 174.042 64.9471 174.217 64.5121 174.623C60.4755 178.389 56.4389 182.157 52.4024 185.926C51.8666 186.427 53.9646 186.255 54.3995 185.849Z" fill="white"/>
<path d="M192.499 122.514C198.849 124.086 205.195 125.656 211.545 127.226C212.149 127.378 214.083 126.447 212.908 126.155C206.561 124.585 200.212 123.012 193.865 121.442C193.258 121.291 191.325 122.222 192.499 122.514" fill="white"/>
<path d="M169.227 178.784C175.223 182.601 180.992 186.735 186.535 191.188C187.147 191.682 189.174 190.822 188.556 190.326C182.92 185.796 177.056 181.593 170.956 177.71C170.338 177.317 168.333 178.214 169.227 178.784Z" fill="white"/>
<path d="M79.8042 338.34C115.868 339.231 151.948 339.666 188.014 340.308C188.776 340.321 190.351 339.197 188.89 339.17C152.82 338.528 116.743 338.096 80.6794 337.205C79.9182 337.186 78.3456 338.305 79.8042 338.34" fill="white"/>
<path d="M80.6242 326.246C116.134 325.448 151.638 325.721 187.132 327.063C188.415 327.111 188.76 325.416 187.296 325.36C151.802 324.018 116.298 323.748 80.7886 324.546C79.5103 324.575 79.1443 326.281 80.6242 326.246" fill="white"/>
<path d="M80.388 306.05C122.204 304.552 163.88 307.053 205.219 313.558C205.893 313.664 207.776 312.588 206.559 312.397C165.066 305.867 123.223 303.337 81.242 304.841C80.4517 304.87 78.9293 306.103 80.388 306.05Z" fill="white"/>
<path d="M78.3696 292.336C117.383 291.498 156.372 292.267 195.319 294.633C196.292 294.691 197.584 293.275 196.109 293.184C156.977 290.808 117.799 290.05 78.6057 290.893C77.4229 290.917 76.8791 292.368 78.3696 292.336" fill="white"/>
</svg>
