<svg width="336" height="274" viewBox="0 0 336 274" fill="none" xmlns="http://www.w3.org/2000/svg">
<path d="M3.16693 175.66C2.36048 175.66 1.55403 175.354 0.937461 174.744C-0.304612 173.514 -0.313568 171.51 0.917336 170.265C8.07266 163.043 30.1262 148.842 53.4754 133.807C70.4891 122.852 88.0814 111.526 99.727 102.968L101.273 101.833L102.995 102.675C106.527 104.406 111.484 110.342 118.106 118.538C119.52 120.29 121.13 122.287 122.415 123.79C123.878 120.958 126.065 116.573 128.205 112.281C134.981 98.692 144.258 80.081 149.061 73.0218L150.851 70.3924L153.471 72.193C157.772 75.144 161.145 77.5366 164.125 79.6499C168.888 83.0298 172.547 85.6257 177.379 88.6616C179.883 84.0329 184.704 77.3042 191.171 68.4265C196.24 61.4723 201.481 54.2767 202.915 51.1224L204.939 46.6702L223.407 67.6268C231.023 76.2699 238.877 85.1856 248.222 91.979C252.431 87.4664 260.062 79.1942 268.698 69.8317C290.305 46.4088 319.896 14.327 325.735 8.76899C327.002 7.56489 329.006 7.61186 330.212 8.87851C331.418 10.1474 331.367 12.149 330.103 13.3553C324.413 18.7726 294.9 50.765 273.351 74.1253C263.205 85.1253 254.446 94.6263 250.961 98.319L249.118 100.274L246.89 98.7725C235.886 91.3669 227.127 81.4258 218.656 71.8132L206.355 57.8532C203.954 61.6353 200.315 66.6327 196.289 72.155C190.34 80.3223 182.937 90.4845 181.807 94.1728L180.616 98.0554L177.138 95.9532C170.485 91.9254 166.062 88.789 160.461 84.817C158.158 83.1818 155.616 81.379 152.587 79.2768C147.696 87.3771 139.811 103.196 133.871 115.107C125.893 131.113 125.893 131.113 124.388 131.723C121.544 132.876 120.107 131.095 113.18 122.517C109.885 118.438 104.715 112.035 101.655 109.397C89.8999 117.886 73.1386 128.678 56.9045 139.131C34.8688 153.321 12.0848 167.991 5.41427 174.722C4.79547 175.348 3.98009 175.66 3.16693 175.66" fill="#1E2939"/>
<path d="M325.561 31.3363C325.391 31.3363 325.223 31.3229 325.054 31.2961C323.327 31.0169 322.152 29.3928 322.429 27.6659L322.482 27.3398C323.099 23.5041 323.809 19.0697 324.786 14.861C323.682 15.1581 322.59 15.386 321.52 15.6093L310.111 17.9974C308.402 18.3593 306.726 17.258 306.364 15.5468C306.007 13.8356 307.104 12.1579 308.815 11.7982L320.224 9.41015C321.908 9.05718 323.501 8.72431 324.953 8.16806C325.981 7.77042 326.961 7.24992 327.868 6.61772L336 0.934571L332.662 10.2792C330.799 15.4932 329.655 22.6172 328.733 28.3451L328.682 28.6735C328.431 30.2283 327.086 31.3363 325.561 31.3363" fill="#1E2939"/>
<path d="M174.276 138.365C173.67 138.443 173.065 138.521 172.462 138.599C172.495 131.138 175.732 116.575 173.134 110.266C172.225 108.054 172.419 106.457 174.904 97.8856C175.833 94.6821 180.98 89.3474 182.763 86.5282C185.414 82.3306 189.677 80.4072 192.934 76.9043C196.282 73.3032 197.694 79.6968 202.363 77.8739C203.377 77.4785 206.107 75.7114 206.831 74.896C207.508 74.132 209.494 63.5788 209.809 62.6093C211.904 56.1577 215.443 54.0623 221.899 52.456C222.504 52.3041 223.083 52.8135 223.052 53.4367C222.703 60.5407 222.862 66.6505 220.659 73.5422C218.778 79.4264 215.758 84.8929 213.823 90.7593C211.487 97.8319 210.754 105.409 207.872 112.279C206.148 116.385 203.695 120.142 201.803 124.172C199.91 128.202 199.87 131.006 200.594 135.398C200.735 134.473 175.645 138.423 176.188 138.101L174.276 138.365" fill="#F57477"/>
<path d="M163.564 237.172C163.656 229.351 172.596 158.338 171.727 141.926C179.282 140.621 186.84 139.316 194.395 138.012C195.09 137.893 195.82 137.775 196.49 137.996C197.154 138.215 197.668 138.736 198.13 139.258C204.734 146.722 206.016 157.38 206.579 167.328C208.181 195.735 206.362 224.347 209.854 252.584C195.125 251.706 183.234 251.284 166.388 252.122C161.922 252.345 161.962 251.858 162.51 248.686C163.169 244.886 163.519 241.03 163.564 237.172" fill="#1E2939"/>
<path d="M203.806 129.719C206.313 135.612 207.745 141.68 209.257 147.901C195.295 145.685 181.054 147.928 167.094 150.167C167.132 146.373 164.737 135.691 166.015 134.839C166.853 134.281 174.544 133.289 177.464 132.885C179.912 132.545 203.375 128.712 203.806 129.719" fill="#CBECF1"/>
<path d="M191.446 68.9538C187.144 67.8815 181.972 65.7257 178.815 68.8398C175.672 71.9406 177.783 74.0874 177.348 74.523C176.602 75.2669 174.529 74.8536 173.13 76.2878C171.057 78.4123 171.631 82.4646 174.214 83.9323C172.158 83.9949 170.038 86.9415 169.739 88.9744C169.437 91.0073 170.474 93.058 171.367 94.9077C168.582 98.2006 166.115 101.844 168.291 105.568C169.609 107.824 172.266 108.848 174.66 109.891C178.351 111.499 181.863 113.521 185.106 115.907C186.719 117.091 188.857 118.413 190.546 117.339C193.861 115.225 190.646 109.469 188.337 106.287C186.027 103.104 185.839 103.602 182.258 101.983C186.695 101.263 187.559 101.292 191.757 102.903C195.28 104.257 199.066 104.929 202.839 104.869C203.677 104.858 204.635 104.744 205.113 104.056C205.694 103.22 205.216 102.076 204.658 101.225C200.708 95.2205 193.542 92.3387 186.82 89.7987C193.392 92.9754 200.643 94.7424 207.942 94.9457C208.511 94.9613 209.144 94.9479 209.566 94.5637C210.392 93.8153 209.769 92.4548 209.07 91.5881C205.221 86.8164 199.904 83.2465 194.031 81.4907C198.416 82.802 202.909 83.7559 207.448 84.3412C209.05 84.5467 211.009 84.5489 211.876 83.1885C212.843 81.6627 211.668 79.6968 210.412 78.3967C204.899 72.6956 199.144 70.8705 191.446 68.9538" fill="#F57477"/>
<path d="M102.162 164.859C103.683 162.469 106.29 146.226 106.882 143.454C107.311 141.443 113.332 133.07 114.076 115.572C114.641 102.26 117.482 101.741 120.992 88.8851C124.443 88.55 127.542 90.7213 128.529 94.0432C129.579 97.5863 129.53 101.837 129.249 105.519C128.411 116.41 130.513 115.96 131.203 122.553C131.308 123.574 135.926 120.775 136.303 121.729C136.949 123.359 138.475 124.438 139.846 125.533C147.444 131.589 152.256 141.008 152.707 150.714C152.812 152.935 152.698 155.171 153.024 157.369C153.641 161.54 157.915 160.166 159.266 164.16C160.618 168.154 161.737 169.694 159.237 173.089C155.745 177.832 144.162 183.198 138.881 185.803C134.114 188.153 132.108 195.784 126.807 196.177C124.658 196.336 122.54 195.697 120.478 195.062C116.723 193.907 112.968 192.752 109.212 191.597C106.268 190.69 103.301 189.777 100.565 188.358C97.0418 186.531 93.4519 183.788 89.5581 184.563C89.8351 183.522 96.1214 174.338 102.162 164.859Z" fill="#F57477"/>
<path d="M123.503 172.91C123.387 172.443 123.503 171.947 123.673 171.496C124.557 169.13 126.749 167.533 128.902 166.215C136.107 161.814 144.839 158.296 153.206 157.147C144.761 157.109 136.315 158.034 128.08 159.902C126.476 160.266 124.511 160.556 123.44 159.31C122.701 158.448 122.728 157.143 123.132 156.084C123.836 154.246 125.46 152.939 127.053 151.782C131.983 148.205 137.309 145.198 142.907 142.797C141.678 142.64 140.477 143.145 139.335 143.621C134.572 145.605 129.66 147.227 124.654 148.471C123.349 148.795 121.687 148.967 120.927 147.857C120.257 146.88 120.771 145.54 121.417 144.546C123.521 141.302 126.8 139.037 129.995 136.859C131.644 135.735 133.312 133.939 135.294 133.711C131.349 134.853 127.401 135.994 123.456 137.136C121.032 137.837 118.385 138.528 116.053 137.569C115.769 137.453 115.483 137.306 115.311 137.051C115.01 136.611 115.144 136.014 115.318 135.509C117.282 129.773 122.607 125.845 128.085 123.25C136.728 119.153 146.493 117.455 156.009 118.393C157.584 118.547 159.521 121.554 159.811 123.111C160.674 127.706 157.801 128.712 155.359 130.434C158.828 129.603 162.925 131.832 163.689 135.317C164.453 138.802 161.301 144.246 157.801 144.941C160.96 145.804 164.538 148.428 164.838 151.69C165.139 154.951 161.179 158.879 158.232 160.309C162.001 164.178 162.307 168.641 159.237 173.089C159.038 173.377 123.847 174.293 123.503 172.91" fill="#F57477"/>
<path d="M294.797 154.934C294.062 152.89 294.846 140.301 294.871 138.128C294.889 136.553 291.797 129.277 294.187 116.063C296.006 106.01 293.968 105.144 293.508 94.9367C290.984 94.1057 288.301 95.207 287.003 97.5259C285.62 99.9989 284.264 102.345 283.855 105.146C282.647 113.434 281.827 113.583 280.201 118.4C279.948 119.146 276.966 116.273 276.524 116.923C275.766 118.036 274.444 118.585 273.233 119.173C266.531 122.423 261.346 128.658 259.374 135.843C258.922 137.484 258.627 139.178 258.015 140.766C256.851 143.782 253.887 142.035 252.203 144.794C250.518 147.555 249.421 148.518 250.721 151.478C252.535 155.613 260.292 161.578 263.806 164.415C266.976 166.975 267.19 173.022 271.088 174.208C272.67 174.689 274.363 174.568 276.01 174.441C279.014 174.211 282.017 173.978 285.019 173.746C287.376 173.565 289.749 173.382 292.034 172.781C294.978 172.008 298.124 170.558 300.905 171.796C300.874 170.969 297.719 163.041 294.797 154.934Z" fill="#F57477"/>
<path d="M277.477 157.364C277.645 157.032 277.64 156.643 277.589 156.276C277.328 154.357 275.956 152.794 274.566 151.447C269.92 146.941 263.98 142.837 257.917 140.572C264.239 141.964 270.402 144.079 276.246 146.863C277.383 147.405 278.807 147.953 279.816 147.2C280.513 146.682 280.714 145.701 280.589 144.841C280.373 143.346 279.378 142.095 278.382 140.963C275.297 137.455 271.819 134.31 268.037 131.571C268.982 131.658 269.795 132.241 270.57 132.791C273.798 135.076 277.198 137.116 280.734 138.89C281.657 139.35 282.87 139.761 283.625 139.057C284.291 138.438 284.132 137.35 283.815 136.497C282.79 133.718 280.717 131.471 278.695 129.304C277.649 128.187 276.704 126.56 275.261 126.058C278.02 127.577 280.779 129.094 283.54 130.613C285.234 131.544 287.097 132.507 289.002 132.183C289.235 132.145 289.474 132.081 289.646 131.92C289.945 131.64 289.945 131.174 289.9 130.765C289.398 126.145 286.076 122.312 282.414 119.445C276.64 114.926 269.623 112.011 262.347 111.108C261.143 110.961 259.188 112.884 258.708 113.999C257.289 117.292 259.268 118.527 260.805 120.227C258.35 119.019 254.91 119.997 253.753 122.477C252.593 124.957 254.034 129.556 256.536 130.664C254.028 130.78 250.909 132.141 250.134 134.529C249.361 136.917 251.662 140.523 253.625 142.086C250.154 144.347 249.173 147.636 250.721 151.478C250.82 151.726 276.988 158.341 277.477 157.364" fill="#F57477"/>
<path d="M77.9192 197.1C78.1605 196.689 78.4308 196.249 78.8709 196.063C79.2529 195.9 79.6885 195.963 80.0973 196.027C95.4847 198.516 110.468 203.676 126.029 204.498C126.414 204.519 126.814 204.541 127.14 204.74C128.085 205.314 127.752 206.746 127.303 207.756C120.728 222.526 115.577 235.258 109.002 250.028C108.826 250.424 108.634 250.839 108.281 251.09C107.91 251.351 107.427 251.385 106.974 251.405C100.446 251.708 93.7847 251.284 84.0112 250.866C76.3376 250.536 47.3812 251.143 45.8934 249.329C43.541 246.459 48.2882 239.54 49.8765 237.362C54.6214 230.855 58.9798 226.275 63.555 219.638C68.6126 212.302 73.4044 204.782 77.9192 197.1" fill="#1E2939"/>
<path d="M250.621 165.675C249.374 161.634 246.984 158.037 245.521 154.072C242.532 145.974 239.549 145.357 244.388 131.582C247.9 121.588 245.275 121.496 249.198 111.658C249.805 110.132 250.368 108.195 249.229 107.009C248.807 106.569 248.217 106.33 247.636 106.142C240.195 103.741 233.397 110.63 231.358 118.179C230.911 119.832 230.73 121.628 229.716 123.009C229.039 123.931 223.329 132.092 222.254 133.982C219.929 138.077 200.69 133.892 193.532 138.184C190.704 139.882 188.694 142.663 187.112 145.556C183.225 152.664 181.482 160.794 181.056 168.885C180.888 172.062 180.924 175.312 181.923 178.332C183.046 181.735 185.314 184.632 187.686 187.319C191.873 192.069 197.212 195.663 202.222 199.53C206.395 202.752 210.783 206.654 216.218 206.775C222.192 206.907 225.355 203.263 228.833 199.045C234.391 192.308 243.765 191.224 248.47 183.341C251.597 178.1 252.419 171.51 250.621 165.675" fill="#F57477"/>
<path d="M191.008 194.667C199.218 196.385 207.875 195.929 215.859 193.358C216.703 193.087 217.706 192.556 217.646 191.671C217.608 191.117 217.143 190.699 216.701 190.362C211.089 186.07 203.934 184.469 197.026 182.979C195.206 182.586 193.191 181.777 191.37 181.384C198.47 182.105 205.638 182.827 212.722 181.976C213.52 181.88 214.351 181.748 214.992 181.265C216.245 180.318 216.245 178.328 215.407 176.998C214.57 175.671 213.135 174.858 211.744 174.132C205.435 170.844 198.769 168.239 191.904 166.376C190.55 166.007 190.463 165.21 189.465 164.222C189.293 164.305 189.121 164.39 188.949 164.473C200.46 166.106 212.568 167.676 223.418 163.494C224.265 163.168 225.232 162.634 225.29 161.727C225.335 161.057 224.848 160.481 224.357 160.023C221.032 156.929 216.39 155.794 211.967 154.771C205.366 153.245 199.685 151.732 193.084 150.207C198.304 150.019 203.525 149.831 208.748 149.644C214.849 149.425 221.354 149.074 226.289 145.48C226.535 145.301 226.789 145.093 226.863 144.801C226.948 144.472 226.78 144.135 226.602 143.847C224.669 140.712 220.992 139.104 217.405 138.266C213.551 137.368 211.015 135.152 207.064 134.933C201.316 134.616 197.569 134.839 190.588 135.771C188.462 135.791 184.096 138.697 183.364 140.692C182.631 142.689 182.848 144.919 183.415 146.967C183.759 148.216 184.23 149.537 183.831 150.77C183.055 153.153 179.709 153.551 178.235 155.577C176.333 158.195 178.393 161.747 180.218 164.421C180.515 164.855 180.819 165.33 180.81 165.86C180.797 166.514 180.31 167.048 179.908 167.567C176.626 171.78 178.529 178.924 183.473 180.946C180.375 183.58 179.964 188.803 182.615 191.885C185.265 194.97 191.303 194.276 191.008 194.667" fill="#F57477"/>
<path d="M249.071 188.231C252.147 199.383 254.555 210.718 256.28 222.156C242.641 226.351 228.619 229.3 214.447 230.955C214.21 220.208 210.591 209.558 204.231 200.888C217.034 199.264 229.224 193.163 238.2 183.89C239.483 182.566 245.204 174.885 246.955 175.987C247.5 176.328 247.391 181.187 247.547 182.067C247.918 184.149 248.508 186.194 249.071 188.231" fill="#F57477"/>
<path d="M213.691 238.34C227.296 237.143 240.901 235.946 254.506 234.748C255.73 234.641 257.164 234.616 257.944 235.568C258.37 236.091 258.489 236.792 258.589 237.46C259.626 244.258 260.2 247.372 261.237 254.17C261.118 253.391 218.461 254.061 215.161 253.426C213.35 253.078 213.821 248.708 213.729 246.912C213.584 244.057 213.571 241.195 213.691 238.34" fill="#1E2939"/>
<path d="M255.826 220.869C256.132 220.782 256.465 220.692 256.767 220.797C257.309 220.989 257.464 221.668 257.535 222.24C258.196 227.557 258.858 232.876 259.519 238.193C243.812 239.489 228.116 241.117 212.592 243.84C212.186 243.912 211.73 243.972 211.397 243.726C211.069 243.485 210.991 243.034 210.937 242.627C210.464 238.99 209.95 229.597 209.95 227.921C209.95 227.419 247.661 223.205 255.826 220.869" fill="#CBECF1"/>
<path d="M269.556 186.665C269.583 186.227 269.63 185.751 269.936 185.436C270.193 185.172 270.577 185.085 270.937 185.012C281.501 182.847 292.222 181.444 302.987 180.818C305.315 203.969 307.611 228.031 310.663 251.098C299.051 252.356 276.222 255.008 273.617 253.147C271.292 251.485 268.729 199.874 269.556 186.665Z" fill="#1E2939"/>
<path d="M67.1314 160.327C66.9102 160.925 67.1314 161.658 67.6452 162.036C68.8471 157.771 70.4265 153.035 74.3895 151.054C75.7589 150.37 77.2892 150.095 78.7479 149.635C81.4979 148.766 84.23 147.513 86.2451 145.451C87.8021 143.856 90.8514 141.541 88.3383 138.61C87.925 138.128 85.3358 137.587 84.7081 137.493C82.0966 137.098 79.742 138.065 77.0434 138.137C80.8478 133.975 88.0523 137.295 91.4099 133.584C94.0639 130.651 90.1813 127.693 89.7345 127.579C84.4713 126.243 80.1642 127.097 74.7559 127.586C80.4904 125.687 89.4128 126.185 91.4055 120.482C92.4733 117.43 86.8616 115.793 83.6492 115.427C80.439 115.058 78.4977 114.263 75.3546 115.013C78.4329 113.233 80.2313 113.005 83.3119 111.222C85.8697 109.743 88.9325 109.712 87.7641 104.462C86.942 100.772 74.5168 102.168 65.4403 102.588C67.9915 96.7553 68.3355 91.7021 68.9967 85.3711C69.6558 79.0401 68.0965 72.1506 63.4364 67.8145C62.2145 66.6774 60.2933 65.7347 58.9663 66.7467C57.9745 67.504 57.894 68.9382 57.8695 70.1847C57.6438 81.4327 54.7352 92.618 49.4519 102.552C48.0423 105.204 46.4607 107.78 45.4085 110.592C44.2893 113.579 43.7956 116.758 43.3734 119.919C42.4865 126.583 41.8923 133.285 41.5952 140.002C41.5416 141.231 41.7605 142.082 42.3972 143.136C43.0338 144.189 44.019 144.977 44.9863 145.737C51.1006 150.529 57.4137 155.068 63.9034 159.339C65.3241 160.275 65.4649 159.98 67.1314 160.327" fill="#F57477"/>
<path d="M22.1574 208.421C26.4868 197.669 34.1001 176.154 35.0987 172.234C36.0146 168.646 36.935 165.031 37.1852 161.336C37.4354 157.666 37.1025 153.674 39.1823 150.64C47.6646 156.777 56.5222 162.393 65.6903 167.451C65.0224 174.166 64.5242 181.252 63.3469 187.896C59.4375 209.956 45.3168 238.41 39.332 246.957C36.8032 250.567 3.30965 249.609 4.98511 244.303C8.22656 234.033 18.1252 218.434 22.1574 208.421Z" fill="#1E2939"/>
<path d="M58.5951 149.858C60.3286 150.705 65.9581 154.451 69.6821 157.252C71.6391 158.722 72.2288 161.403 71.1052 163.579L67.0796 171.364C66.9232 171.666 66.7378 171.994 66.4206 172.11C66.0743 172.236 65.699 172.072 65.3684 171.912C57.0022 167.839 48.6361 163.764 40.27 159.692C37.6853 158.434 35.0805 157.168 32.3596 156.274C31.0684 155.85 30.3848 154.453 30.8405 153.176C31.848 150.347 33.3291 145.964 33.6575 145.366C34.8058 143.281 36.3025 141.881 38.7598 141.727C44.8853 141.345 53.2492 147.249 58.5951 149.858" fill="#CBECF1"/>
<path d="M157.59 159.962C152.738 161.061 150.974 162.011 146.302 163.684C142.319 165.109 136.891 167.549 133.254 164.85C129.367 161.966 131.158 156.337 134.717 153.683C135.541 153.068 133.714 153.048 133.249 153.395C129.595 156.118 126.449 165.377 132.438 167.156C135.825 168.161 140.849 166.477 144.057 165.462C149.611 163.706 151.606 161.951 157.311 160.662C158.424 160.409 157.59 159.962 157.59 159.962" fill="white"/>
<path d="M125.029 136.917C127.124 135.89 129.233 134.92 131.214 136.636C132.443 137.701 133.095 139.187 133.569 140.706C133.716 141.18 135.106 140.547 135.316 140.389C135.459 140.282 135.604 140.172 135.747 140.063C136.122 139.781 134.445 139.935 134.087 140.206C133.944 140.315 133.799 140.422 133.656 140.532C134.239 140.427 134.82 140.32 135.403 140.215C134.635 137.742 133.169 135.293 130.399 134.815C128.056 134.413 125.987 135.695 123.972 136.68C122.889 137.212 124.595 137.129 125.029 136.917" fill="white"/>
<path d="M126.335 148.12C128.636 147.144 132.103 146.858 134.442 147.922C135.106 148.221 135.72 148.625 136.209 149.173C136.761 149.791 136.813 150.788 137.302 151.324C137.918 152.003 138.723 152.226 139.507 151.391C140.251 150.598 138.468 150.582 138.026 151.054C137.97 151.112 137.914 151.172 137.856 151.232C138.289 151.116 138.723 151 139.154 150.886C139.353 150.928 137.603 148.132 137.431 147.98C136.453 147.129 135.215 146.668 133.953 146.436C131.221 145.931 128.152 146.235 125.596 147.318C124.423 147.814 125.486 148.48 126.335 148.12" fill="white"/>
<path d="M130.94 162.842C132.137 160.597 136.281 160.534 138.352 161.569C139.831 162.306 140.687 163.646 141.095 165.188C141.192 165.549 143.028 165.069 142.93 164.696C142.014 161.236 139.08 160.163 135.776 160.347C133.341 160.481 130.404 160.8 129.135 163.181C129.032 163.376 130.701 163.293 130.94 162.842" fill="white"/>
<path d="M134.447 173.775C137.724 170.998 141.772 173.795 142.65 177.273C142.759 177.709 144.598 177.237 144.484 176.782C143.106 171.306 136.665 170.596 132.778 173.887C132.369 174.233 134.092 174.076 134.447 173.775Z" fill="white"/>
<path d="M149.861 120.169C152.595 121.51 154.099 125.077 154.483 127.917C154.561 128.502 156.406 128.089 156.317 127.425C155.908 124.389 154.226 120.723 151.329 119.303C150.813 119.05 149.126 119.81 149.861 120.169" fill="white"/>
<path d="M156.272 134.498C158.153 136.951 160.039 139.56 159.532 142.819C159.402 143.648 161.265 143.366 161.379 142.638C161.918 139.169 159.974 136.356 157.964 133.731C157.519 133.153 155.756 133.823 156.272 134.498Z" fill="white"/>
<path d="M158.194 151.898C159.8 153.395 160.363 155.6 159.849 157.706C159.63 158.604 161.509 158.397 161.71 157.572C162.32 155.061 161.476 152.568 159.604 150.828C158.998 150.263 157.41 151.17 158.194 151.898Z" fill="white"/>
<path d="M142.426 144.935C143.24 146.559 143.577 148.272 143.436 150.084C143.418 150.318 145.23 150.129 145.27 149.592C145.411 147.781 145.076 146.07 144.263 144.443C144.044 144.008 142.286 144.653 142.426 144.935Z" fill="white"/>
<path d="M140.009 134.402C140.05 135.594 141.176 137.248 140.164 138.291C139.878 138.583 140.418 138.586 140.592 138.579C140.961 138.566 141.551 138.423 141.821 138.143C143.052 136.879 141.893 135.373 141.846 133.91C141.835 133.613 139.994 133.894 140.009 134.402Z" fill="white"/>
<path d="M147.444 158.861C147.777 160.159 148.159 161.441 148.588 162.71C148.733 163.146 150.553 162.61 150.422 162.219C149.993 160.95 149.613 159.668 149.278 158.37C149.171 157.954 147.332 158.43 147.444 158.861Z" fill="white"/>
<path d="M218.191 50.0101C217.208 53.6894 214.134 57.4938 216.748 61.2111C219.104 64.5642 223.505 64.7876 227.187 64.1666C228.101 64.0124 228.668 62.8329 227.41 63.0451C223.668 63.6751 218.626 63.0608 217.634 58.613C216.964 55.6083 219.279 52.6305 220.034 49.809C220.228 49.0763 218.372 49.3287 218.191 50.0101" fill="white"/>
<path d="M121.704 87.8999C121.492 88.2797 122.882 89.743 123.159 90.6142C123.583 91.9456 123.572 93.3932 123.288 94.7492C122.926 96.4761 122.506 97.43 120.862 98.2141C119.497 98.8664 119.082 98.7837 117.728 98.7323C117.053 98.7078 116.448 98.7458 115.773 98.8195C115.273 98.8753 113.792 99.7265 114.989 99.5947C117.446 99.3244 119.991 100.146 122.303 98.9267C124.258 97.8969 125.066 95.4284 125.276 93.3597C125.475 91.3916 124.955 87.8151 122.638 87.1538C121.651 86.8724 120.386 87.3147 119.89 88.2105C119.738 88.483 121.438 88.3758 121.704 87.8999" fill="white"/>
<path d="M289.485 91.1859C286.974 95.5667 284.791 101.187 289.683 104.811C293.09 107.335 297.625 107.237 301.376 105.608C302.56 105.094 301.458 104.724 300.703 105.05C296.604 106.83 290.816 105.619 288.968 101.143C287.519 97.6264 289.581 93.9069 291.305 90.9022C291.502 90.5582 289.773 90.6833 289.485 91.1859" fill="white"/>
<path d="M92.3682 190.281C84.4153 200.955 76.4603 211.629 68.5074 222.301C64.9733 227.045 61.4392 231.788 57.9051 236.531C55.9035 239.216 47.7563 253.853 44.5349 254.594C45.6184 254.344 45.4576 253.723 44.3696 253.976C44.2155 254.009 44.0614 254.045 43.9072 254.081C43.7173 254.125 43.0137 254.338 43.074 254.637C43.1142 254.847 43.1544 255.057 43.1968 255.269C43.275 255.676 44.4702 255.265 44.6489 255.166C47.8077 253.417 49.4943 249.946 51.6188 247.093C56.4799 240.57 61.3387 234.049 66.1997 227.526C75.4773 215.074 84.7572 202.622 94.0347 190.17C94.4078 189.672 92.6452 189.911 92.3682 190.281" fill="white"/>
<path d="M106.893 196.385C100.933 207.007 94.6913 217.46 88.052 227.673C85.101 232.208 82.0784 236.701 78.9934 241.146C76.6946 244.452 74.3468 247.723 71.9743 250.978C71.2461 251.976 65.0848 261.484 64.4437 261.56C65.4221 261.446 65.8913 260.173 64.6336 260.32C64.4884 260.338 64.3432 260.354 64.1957 260.371C63.7512 260.423 63.1234 260.695 63.1837 261.238C63.2061 261.439 63.2284 261.64 63.2485 261.841C63.3066 262.373 64.2895 262.228 64.5598 262.085C72.1486 258.126 79.534 243.125 84.1739 236.278C92.9109 223.393 101.016 210.117 108.633 196.541C109.111 195.688 107.257 195.737 106.893 196.385" fill="white"/>
<path d="M124.269 198.19C112.04 223.344 99.8115 248.498 87.5829 273.652C87.3618 274.108 89.1444 273.938 89.4103 273.391C101.637 248.237 113.865 223.085 126.094 197.931C126.317 197.475 124.532 197.642 124.269 198.19Z" fill="white"/>
<path d="M99.0256 194.37C85.3248 219.765 68.2195 242.348 49.9301 264.574C49.4364 265.175 51.266 265.038 51.6324 264.592C69.9217 242.364 87.027 219.783 100.728 194.388C101.125 193.646 99.3003 193.858 99.0256 194.37Z" fill="white"/>
<path d="M115.148 196.394C103.174 218.231 90.5098 239.659 77.1552 260.678C76.6124 261.531 78.48 261.565 78.9089 260.888C92.2656 239.869 104.928 218.441 116.904 196.606C117.398 195.703 115.537 195.683 115.148 196.394Z" fill="white"/>
<path d="M245.941 103.765C242.135 107.121 238.292 113.581 242.818 118.083C245.28 120.531 249.368 120.174 251.91 118.087C252.245 117.813 250.592 117.993 250.262 118.266C246.113 121.668 242.657 115.59 242.677 112.42C242.7 108.796 244.999 105.872 247.59 103.587C247.925 103.292 246.263 103.484 245.941 103.765" fill="white"/>
<path d="M275.715 179.905C272.844 209.203 278.822 238.133 280.337 267.319C280.354 267.659 282.2 267.351 282.173 266.828C280.656 237.639 274.678 208.712 277.549 179.413C277.573 179.157 275.768 179.342 275.715 179.905Z" fill="white"/>
<path d="M285.381 179.266C283.087 193.673 285.117 207.615 286.744 221.961C288.558 237.961 287.416 254.219 291.06 269.98C291.265 270.876 293.104 270.395 292.894 269.488C289.552 255.026 290.488 240.219 289.022 225.54C287.47 209.981 284.76 194.754 287.246 179.148C287.398 178.183 285.519 178.39 285.381 179.266" fill="white"/>
<path d="M293.497 176.967C291.02 183.296 292.653 189.455 293.548 196.041C294.601 203.763 295.651 211.486 296.703 219.209C298.548 232.758 298.077 250.066 303.671 262.574C303.965 263.233 305.77 262.673 305.505 262.083C300.407 250.681 300.782 235.211 299.111 222.931C298.155 215.909 297.199 208.888 296.243 201.867C295.177 194.037 292.42 184.198 295.336 176.75C295.581 176.125 293.745 176.337 293.497 176.967" fill="white"/>
<path d="M260.683 195.808C278.574 194.454 296.325 192.207 313.993 189.086C315.151 188.881 314.807 187.69 313.672 187.889C296.171 190.983 278.583 193.183 260.861 194.524C259.852 194.602 259.427 195.902 260.683 195.808" fill="white"/>
<path d="M261.279 207.271C272.686 205.31 284.07 204.197 295.628 203.726C302.475 203.446 308.565 203.167 314.865 200.29C316.004 199.769 314.992 198.757 314.047 199.189C304.841 203.395 294.087 202.195 284.197 202.98C276.392 203.598 268.651 204.668 260.937 205.995C259.771 206.194 260.137 207.468 261.279 207.271" fill="white"/>
<path d="M261.473 216.021C262.412 220.17 310.372 213.917 315.941 213.343C316.455 213.289 317.921 212.422 316.721 212.547C311.976 213.034 264.069 218.896 263.31 215.53C263.209 215.09 261.366 215.543 261.473 216.021Z" fill="white"/>
<path d="M265.447 228.359C282.253 227.72 298.979 226.34 315.662 224.204C316.538 224.092 317.194 223.051 315.919 223.214C299.39 225.33 282.821 226.708 266.167 227.341C265.501 227.367 264.219 228.406 265.447 228.359" fill="white"/>
<path d="M264.862 239.83C282.088 238.51 299.298 237.018 316.498 235.356C317.016 235.304 318.477 234.438 317.275 234.554C300.078 236.218 282.865 237.71 265.64 239.028C265.117 239.069 263.656 239.922 264.862 239.83Z" fill="white"/>
<path d="M264.594 249.222C283.417 249.917 301.937 248.559 320.463 245.114C321.329 244.953 321.975 243.856 320.713 244.093C302.368 247.504 283.96 248.865 265.307 248.177C264.605 248.152 263.356 249.177 264.594 249.222Z" fill="white"/>
<path d="M57.0565 66.0764C57.4296 65.9245 59.2458 68.5248 59.5027 68.9672C60.2176 70.1914 60.718 71.601 60.5303 73.0508C60.0612 76.643 56.6723 77.1367 53.6855 77.2596C52.7383 77.2976 52.1932 78.4145 53.4577 78.3631C57.3134 78.2068 62.1187 77.1881 62.389 72.4678C62.5431 69.7871 59.8065 63.8045 56.3082 65.2342C55.1286 65.7168 56.1942 66.4294 57.0565 66.0764" fill="white"/>
<path d="M141.459 122.866C135.615 125.452 125.965 129.344 123.693 136.191C122.163 140.804 125.534 142.455 129.747 142.091C138.024 141.378 147.263 135.762 154.229 131.723C160.298 128.205 165.834 125.008 166.296 117.377C166.317 117.057 164.498 117.287 164.462 117.868C164.094 123.92 160.234 127.137 155.439 130.039C149.649 133.542 141.707 138.818 134.974 139.906C131.905 140.404 124.799 141.459 125.196 136.808C125.299 135.59 126.595 134.241 127.173 133.441C130.895 128.301 136.895 125.669 142.534 123.172C143.64 122.682 141.933 122.656 141.459 122.866" fill="white"/>
<path d="M162.664 141.776C156.516 145.247 149.833 147.577 143.128 149.724C140.7 150.502 138.051 151.681 135.529 152.05C126.751 153.334 123.476 147.258 130.616 141.539C131.407 140.905 129.586 140.967 129.162 141.305C123.689 145.69 122.701 155.298 131.802 153.94C142.329 152.369 154.553 147.452 163.781 142.238C164.851 141.633 163.218 141.463 162.664 141.776" fill="white"/>
<path d="M161.895 167.553C157.827 169.832 153.981 172.629 149.781 174.657C144.459 177.222 132.946 182.192 134.121 173.069C134.456 170.466 136.817 168.094 138.781 166.785C139.543 166.276 137.717 166.474 137.371 166.707C131.766 170.444 129.295 179.027 138.309 178.654C147.705 178.265 155.448 172.03 163.307 167.632C164.087 167.196 162.253 167.355 161.895 167.553" fill="white"/>
<path d="M152.004 116.943C154.542 118.943 156.257 121.63 157.003 124.773C157.129 125.307 158.969 124.84 158.837 124.282C158.078 121.076 156.306 118.304 153.72 116.264C153.264 115.907 151.595 116.619 152.004 116.943" fill="white"/>
<path d="M124.439 210.82C108.857 205.609 93.0227 201.156 77.0098 197.481C74.5793 196.923 73.4221 194.148 74.7602 192.042L83.6871 177.979C84.2366 177.112 84.9694 176.143 85.9947 176.165C86.0149 176.462 85.5412 176.451 85.72 176.212C85.8987 175.973 86.2695 176.053 86.5488 176.156C102.238 181.94 117.795 188.119 133.685 193.322C135.49 193.912 136.082 196.139 134.802 197.54C131.864 200.754 129.753 204.708 128.335 208.886C127.785 210.501 126.054 211.361 124.439 210.82" fill="#CBECF1"/>
<path d="M306.581 170.58C306.478 174.555 307.497 179.798 307.87 183.707C301.611 184.018 295.284 184.254 288.915 185.007C281.362 185.899 273.807 186.792 266.252 187.683C266.095 187.701 265.921 187.715 265.798 187.616C265.682 187.525 265.653 187.364 265.631 187.219C265.014 183.117 264.4 179.018 263.783 174.919C263.734 174.593 263.696 174.222 263.904 173.965C264.089 173.739 264.404 173.679 264.693 173.636C278.297 171.525 291.609 169.434 305.449 169.287C305.732 169.285 306.041 169.291 306.264 169.463C306.581 169.711 306.59 170.178 306.581 170.58" fill="#CBECF1"/>
</svg>
