<svg width="75" height="76" viewBox="0 0 75 76" fill="none" xmlns="http://www.w3.org/2000/svg">
<circle cx="37.5" cy="38.3929" r="37.5" fill="url(#paint0_linear_114_80)"/>
<mask id="mask0_114_80" style="mask-type:alpha" maskUnits="userSpaceOnUse" x="18" y="19" width="39" height="39">
<path d="M56.5923 19.3007H18.4077V57.4852H56.5923V19.3007Z" fill="white"/>
</mask>
<g mask="url(#mask0_114_80)">
<path d="M26.0444 49.8483H48.9552V57.4852H26.0444V49.8483Z" fill="#7CB342"/>
<path fill-rule="evenodd" clip-rule="evenodd" d="M18.4077 42.2114H33.6815V49.8483H18.4077V42.2114ZM41.3185 42.2114H56.5923V49.8483H41.3185V42.2114Z" fill="#7CB342"/>
<path d="M18.4077 34.5745H56.5923V42.2114H18.4077V34.5745Z" fill="#7CB342"/>
<path d="M18.4077 26.9376H56.5923V34.5745H18.4077V26.9376Z" fill="#7CB342"/>
<path fill-rule="evenodd" clip-rule="evenodd" d="M18.4077 19.3007H26.0446V26.9376H18.4077V19.3007ZM33.6815 19.3007H41.3185V26.9376H33.6815V19.3007ZM48.9554 19.3007H56.5923V26.9376H48.9554V19.3007Z" fill="#7CB342"/>
</g>
<defs>
<linearGradient id="paint0_linear_114_80" x1="0" y1="0.892944" x2="75" y2="75.8929" gradientUnits="userSpaceOnUse">
<stop stop-color="#0AD11E"/>
<stop offset="0.0001" stop-color="#4AD10A" stop-opacity="0.74"/>
<stop offset="0.894039" stop-color="#E4FF97" stop-opacity="0"/>
</linearGradient>
</defs>
</svg>
